<?xml version="1.0" encoding="utf-8"?>
<!-- Generator: Adobe Illustrator 22.1.0, SVG Export Plug-In . SVG Version: 6.00 Build 0)  -->
<svg version="1.1" id="Layer_1" xmlns="http://www.w3.org/2000/svg" xmlns:xlink="http://www.w3.org/1999/xlink" x="0px" y="0px"
	 viewBox="0 0 400 400" style="enable-background:new 0 0 400 400;" xml:space="preserve">
<style type="text/css">
	.st0{fill:#00AEEF;}
	.st1{fill:#EC008C;}
	.st2{fill:#FFF200;}
	.st3{fill:#00A651;}
	.st4{fill:#ED1C24;}
	.st5{fill:#2E3192;}
	.st6{fill:#363639;}
</style>
<path class="st0" d="M330.2,144.1c33.6,19.6,58.1,53.9,63.6,95.4c9.5,71.4-40.6,136.9-111.9,146.5c-29.8,4-58.6-2.5-82.8-16.5"/>
<path class="st1" d="M199.2,369.4c-14.2,8.2-30.3,13.8-47.6,16.1C80.3,395,14.7,344.9,5.2,273.6C-2,220.1,24.4,169.8,68.2,144
	c0.5-0.3,0.9-0.5,1.4-0.8"/>
<path class="st2" d="M69.5,143.2c0.1-64.2,47.7-120,113.1-128.8C254,4.9,319.5,55,329.1,126.4c0.8,6,1.2,11.9,1.2,17.7"/>
<path class="st3" d="M198.5,144.4c14.6-8.6,31.1-14.5,48.9-16.9c29.8-4,58.7,2.5,82.8,16.5v0c-0.1,47.2-25.9,89.9-65.5,112.7"/>
<path class="st4" d="M134.3,256.3c-33.6-19.6-58.1-53.9-63.6-95.4c-0.8-6-1.2-11.9-1.2-17.7l0,0c14.2-8.2,30.3-13.8,47.6-16.1
	c29.8-4,58.7,2.5,82.8,16.5"/>
<path class="st5" d="M264.7,256.8c-0.1,47.2-25.9,89.9-65.5,112.7l0,0c-33.6-19.6-58.1-53.9-63.7-95.4c-0.8-6-1.2-11.9-1.2-17.7"/>
<path class="st6" d="M264.7,256.8c-14.2,8.2-30.3,13.8-47.6,16.1c-29.8,4-58.7-2.5-82.8-16.5v0c0.1-46.7,25.3-88.9,64.2-111.9
	l1.4-0.8c33.6,19.6,58.1,53.9,63.7,95.4C264.3,245,264.7,250.9,264.7,256.8L264.7,256.8z"/>
<g>
	<g>
		<path d="M197.5,93V76.5l-12.8-23.8h10.5l4.1,9.7c1.3,2.9,2.2,5.1,3.1,7.7h0.1c0.9-2.5,1.9-4.8,3.1-7.7l4.1-9.7h10.2l-13.3,23.5V93
			C206.6,93,197.5,93,197.5,93z"/>
	</g>
	<g>
		<path d="M97.1,302.9c-0.2-4.9-0.4-10.7-0.4-16.6h-0.1c-1.3,5.1-3,10.9-4.6,15.6l-4.9,15.7H80l-4.3-15.6
			c-1.3-4.8-2.6-10.5-3.7-15.8H72c-0.2,5.4-0.4,11.7-0.7,16.7l-0.8,15.3h-8.4l2.6-40.4h12.2l4,13.5c1.3,4.6,2.5,9.6,3.4,14.4h0.2
			c1.1-4.7,2.5-9.9,3.8-14.5l4.3-13.4h12l2.2,40.4h-8.9L97.1,302.9z"/>
	</g>
	<g>
		<path d="M344.6,306.5c-1.6,0.8-5.4,1.7-10.3,1.7c-13.9,0-21.1-8.7-21.1-20.3c0-13.8,9.8-21.4,22-21.4c4.7,0,8.3,1,9.9,1.8
			l-1.9,7.2c-1.8-0.8-4.4-1.5-7.7-1.5c-7.2,0-12.8,4.4-12.8,13.4c0,8.1,4.8,13.2,12.9,13.2c2.8,0,5.8-0.5,7.7-1.3L344.6,306.5z"/>
	</g>
</g>
</svg>
